<?xml version="1.0" encoding="utf-8"?>
<!-- Generator: Adobe Illustrator 17.1.0, SVG Export Plug-In . SVG Version: 6.00 Build 0)  -->
<!DOCTYPE svg PUBLIC "-//W3C//DTD SVG 1.1//EN" "http://www.w3.org/Graphics/SVG/1.1/DTD/svg11.dtd">
<svg version="1.1" id="room" xmlns="http://www.w3.org/2000/svg" xmlns:xlink="http://www.w3.org/1999/xlink" x="0px" y="0px"
	 viewBox="0 0 1024 768" enable-background="new 0 0 1024 768" xml:space="preserve">
<polygon id="floor" onclick="alert(&quot;This is the Floor&quot;);" fill="#FFFFFF" stroke="#000000" stroke-miterlimit="10" points="
	2.1,713.7 1019.8,713.7 785.5,595.7 221.1,595.3 "/>
<rect id="middleWall" x="223.7" y="232.2" onclick="alert(&quot;This is the Middle Wall&quot;);" fill="#FFFFFF" stroke="#000000" stroke-miterlimit="10" width="563.3" height="364.5"/>
<polygon id="leftWall" onclick="alert(&quot;This is the Left Wall&quot;);" fill="#FFFFFF" stroke="#000000" stroke-miterlimit="10" points="
	1.8,54.4 222.7,231.4 222.7,595.7 1.3,713.7 "/>
<polygon id="rightWall" onclick="alert(&quot;This is the Right Wall&quot;);" fill="#FFFFFF" stroke="#000000" stroke-miterlimit="10" points="
	785.5,231.4 1019.7,54.4 1019.8,713.7 786.3,596.6 "/>
<polygon id="bottomRghtTrim" onclick="alert(&quot;This is the Bottom Right Trim&quot;);" fill="#FFFFFF" stroke="#000000" stroke-miterlimit="10" points="
	1019.9,667.1 786.3,563.7 786.3,596.3 1019.8,713.7 "/>
<rect id="bottomMiddleTrim" x="222.4" y="563.7" onclick="alert(&quot;This is the Bottom Middle Trim&quot;);" fill="#FFFFFF" stroke="#000000" stroke-miterlimit="10" width="565.2" height="32.9"/>
<polygon id="bottomLeftTrim" onclick="alert(&quot;This is the Bottom Left Trim&quot;);" fill="#FFFFFF" stroke="#000000" stroke-miterlimit="10" points="
	1.3,713.7 222.8,595.7 223.1,562.4 1.8,669 "/>
<polygon id="topRightTrim" onclick="alert(&quot;This is the Top Right Trim&quot;);" fill="#FFFFFF" stroke="#000000" stroke-miterlimit="10" points="
	1021,54.4 786.2,230.7 787.1,262.9 1020.7,99.1 "/>
<rect id="topMiddleTrim" x="223.7" y="230" onclick="alert(&quot;This is the Top Middle Trim&quot;);" fill="#FFFFFF" stroke="#000000" stroke-miterlimit="10" width="563.4" height="32.9"/>
<polygon id="topLeftTrim" onclick="alert(&quot;This is the Top Left Trim&quot;);" fill="#FFFFFF" stroke="#000000" stroke-miterlimit="10" points="
	2.6,54.4 223.7,230.7 223.7,262.9 2.6,99.1 "/>
<polygon id="ceiiling" onclick="notify(this, &quot;select&quot;); alert(&quot;This is the ceiling&quot;);; " fill="#FFFFFF" stroke="#000000" stroke-miterlimit="10" points="
	2.5,54.7 1021,54.4 786.9,231.4 223.5,231.4 "/>
</svg>
