<?xml version="1.0" encoding="utf-8"?>
<!-- Generator: Adobe Illustrator 17.1.0, SVG Export Plug-In . SVG Version: 6.00 Build 0)  -->
<!DOCTYPE svg PUBLIC "-//W3C//DTD SVG 1.1//EN" "http://www.w3.org/Graphics/SVG/1.1/DTD/svg11.dtd">
<svg version="1.1" id="room" xmlns="http://www.w3.org/2000/svg" xmlns:xlink="http://www.w3.org/1999/xlink" x="0px" y="0px"
	 viewBox="0 0 778.1 502.9" enable-background="new 0 0 778.1 502.9" xml:space="preserve">
<polygon id="floor" onclick="alert(&quot;This is the Floor&quot;);" fill="#FFFFFF" stroke="#000000" stroke-miterlimit="10" points="
	1.6,502 774.9,502 596.9,412.3 168,412 "/>
<rect id="middleWall" x="170" y="136.1" onclick="alert(&quot;This is the Middle Wall&quot;);" fill="#FFFFFF" stroke="#000000" stroke-miterlimit="10" width="428" height="277"/>
<polygon id="leftWall" onclick="alert(&quot;This is the Left Wall&quot;);" fill="#FFFFFF" stroke="#000000" stroke-miterlimit="10" points="
	1.4,1 169.2,135.5 169.2,412.3 1,502 "/>
<polygon id="rightWall" onclick="alert(&quot;This is the Right Wall&quot;);" fill="#FFFFFF" stroke="#000000" stroke-miterlimit="10" points="
	596.9,135.5 774.8,1 774.9,502 597.5,413 "/>
<polygon id="bottomRghtTrim" onclick="alert(&quot;This is the Bottom Right Trim&quot;);" fill="#FFFFFF" stroke="#000000" stroke-miterlimit="10" points="
	775,466.6 597.5,388 597.5,412.8 774.9,502 "/>
<rect id="bottomMiddleTrim" x="169" y="388" onclick="alert(&quot;This is the Bottom Middle Trim&quot;);" fill="#FFFFFF" stroke="#000000" stroke-miterlimit="10" width="429.5" height="25"/>
<polygon id="bottomLeftTrim" onclick="alert(&quot;This is the Bottom Left Trim&quot;);" fill="#FFFFFF" stroke="#000000" stroke-miterlimit="10" points="
	1,502 169.3,412.3 169.5,387 1.4,468 "/>
<polygon id="topRightTrim" onclick="alert(&quot;This is the Top Right Trim&quot;);" fill="#FFFFFF" stroke="#000000" stroke-miterlimit="10" points="
	775.8,1 597.4,135 598.1,159.4 775.6,35 "/>
<rect id="topMiddleTrim" x="170" y="134.4" onclick="alert(&quot;This is the Top Middle Trim&quot;);" fill="#FFFFFF" stroke="#000000" stroke-miterlimit="10" width="428.1" height="25"/>
<polygon id="topLeftTrim" onclick="alert(&quot;This is the Top Left Trim&quot;);" fill="#FFFFFF" stroke="#000000" stroke-miterlimit="10" points="
	2,1 170,135 170,159.4 2,35 "/>
<polygon id="ceiiling" onclick="alert(&quot;This is the ceiling&quot;);" fill="#FFFFFF" stroke="#000000" stroke-miterlimit="10" points="
	1.9,1.2 775.8,1 597.9,135.5 169.8,135.5 "/>
</svg>
